<svg width="112" height="6" viewBox="0 0 112 6" fill="none" xmlns="http://www.w3.org/2000/svg">
<path d="M3 0C1.34315 0 0 1.34315 0 3C0 4.65685 1.34315 6 3 6L25 6C26.6569 6 28 4.65685 28 3C28 1.34315 26.6569 0 25 0L3 0Z" fill="black"/>
<path d="M35 0C33.3431 0 32 1.34315 32 3C32 4.65685 33.3431 6 35 6L57 6C58.6569 6 60 4.65685 60 3C60 1.34315 58.6569 0 57 0L35 0Z" fill="black"/>
<path d="M67 0C65.3431 0 64 1.34315 64 3C64 4.65685 65.3431 6 67 6L109 6C110.657 6 112 4.65685 112 3C112 1.34315 110.657 0 109 0L67 0Z" fill="black"/>
</svg>
